<?xml version="1.0" standalone="no"?>
<!DOCTYPE svg PUBLIC "-//W3C//DTD SVG 20010904//EN"
 "http://www.w3.org/TR/2001/REC-SVG-20010904/DTD/svg10.dtd">
<svg version="1.0" xmlns="http://www.w3.org/2000/svg"
 width="1080.000000pt" height="1080.000000pt" viewBox="0 0 1080.000000 1080.000000"
 preserveAspectRatio="xMidYMid meet">

<g transform="translate(0.000000,1080.000000) scale(0.100000,-0.100000)"
fill="#000000" stroke="none">
<path d="M0 5400 l0 -5400 5400 0 5400 0 0 5400 0 5400 -5400 0 -5400 0 0
-5400z m9090 2203 l0 -1198 -240 -155 c-286 -185 -362 -234 -715 -463 -148
-97 -353 -230 -455 -295 -157 -102 -1051 -682 -1347 -874 l-93 -61 0 -253 0
-254 1425 0 1425 0 0 -1030 0 -1030 -3685 0 -3685 0 0 993 c0 545 -3 1009 -6
1030 l-7 37 1392 0 1391 0 0 259 0 259 -142 90 c-79 49 -267 167 -418 262
-151 95 -345 216 -430 270 -314 198 -541 340 -789 496 -140 87 -419 263 -620
389 l-366 230 -5 1195 c-3 657 -4 1196 -4 1198 1 2 195 -119 430 -269 236
-149 488 -309 559 -354 72 -45 231 -147 355 -225 124 -79 284 -180 355 -225
196 -124 1261 -798 1747 -1107 103 -65 195 -121 203 -124 9 -4 75 33 168 94
83 54 206 134 272 177 66 43 275 180 465 303 190 124 397 259 460 300 63 42
185 121 270 177 85 55 308 200 495 322 187 122 509 332 715 467 206 135 425
277 485 316 61 39 171 111 245 160 74 49 138 89 143 89 4 1 7 -538 7 -1196z"/>
</g>
</svg>
